<svg width="128" height="128" viewBox="0 0 128 128" fill="none" xmlns="http://www.w3.org/2000/svg">
<path d="M4.61449 112.708C3.71858 112.708 2.84965 112.594 2.00771 112.367C1.17656 112.129 0.507323 111.824 0 111.452L0.890518 109.559C1.37625 109.901 1.95374 110.175 2.62297 110.381C3.29221 110.588 3.96144 110.692 4.63068 110.692C5.37549 110.692 5.92599 110.588 6.28219 110.381C6.6384 110.164 6.8165 109.88 6.8165 109.528C6.8165 109.27 6.70853 109.058 6.49268 108.893C6.28756 108.717 6.01772 108.577 5.68312 108.474C5.3593 108.37 4.91672 108.257 4.35543 108.133C3.4919 107.936 2.78489 107.74 2.23439 107.543C1.68389 107.347 1.20894 107.031 0.809562 106.597C0.420973 106.163 0.226677 105.584 0.226677 104.86C0.226677 104.229 0.404782 103.661 0.760988 103.154C1.11719 102.637 1.6515 102.229 2.36392 101.929C3.08712 101.629 3.96684 101.479 5.00309 101.479C5.72628 101.479 6.43328 101.562 7.12413 101.727C7.81494 101.893 8.41943 102.131 8.93755 102.441L8.12799 104.348C7.08092 103.78 6.03391 103.495 4.9869 103.495C4.25289 103.495 3.70778 103.609 3.35158 103.837C3.00616 104.064 2.83346 104.364 2.83346 104.736C2.83346 105.108 3.03315 105.387 3.43253 105.574C3.84271 105.749 4.46337 105.925 5.29453 106.101C6.15803 106.297 6.86508 106.494 7.41558 106.69C7.96608 106.887 8.43562 107.197 8.82421 107.621C9.22358 108.045 9.42328 108.619 9.42328 109.342C9.42328 109.963 9.23977 110.531 8.87278 111.048C8.51658 111.555 7.97685 111.958 7.25366 112.258C6.53042 112.558 5.65074 112.708 4.61449 112.708ZM11.0374 104.178H13.5633V112.522H11.0374V104.178ZM12.3004 103.015C11.8362 103.015 11.4584 102.885 11.167 102.627C10.8755 102.368 10.7298 102.048 10.7298 101.665C10.7298 101.283 10.8755 100.962 11.167 100.704C11.4584 100.445 11.8362 100.316 12.3004 100.316C12.7645 100.316 13.1423 100.44 13.4337 100.688C13.7252 100.936 13.8709 101.246 13.8709 101.619C13.8709 102.022 13.7252 102.358 13.4337 102.627C13.1423 102.885 12.7645 103.015 12.3004 103.015ZM18.8381 112.646C18.1149 112.646 17.4079 112.563 16.717 112.398C16.0262 112.222 15.4757 112.005 15.0655 111.746L15.9074 110.009C16.296 110.247 16.7656 110.444 17.3161 110.599C17.8666 110.743 18.4063 110.816 18.9352 110.816C20.0038 110.816 20.5381 110.562 20.5381 110.056C20.5381 109.818 20.3924 109.647 20.101 109.544C19.8095 109.441 19.3616 109.353 18.7571 109.28C18.0447 109.177 17.4564 109.058 16.9923 108.924C16.5281 108.789 16.1233 108.551 15.7779 108.21C15.4433 107.869 15.276 107.383 15.276 106.752C15.276 106.225 15.4325 105.76 15.7455 105.356C16.0694 104.943 16.5335 104.622 17.138 104.395C17.7532 104.167 18.4765 104.054 19.3076 104.054C19.9229 104.054 20.5328 104.121 21.1372 104.255C21.7525 104.379 22.2598 104.555 22.6592 104.783L21.8172 106.504C21.0509 106.091 20.2143 105.884 19.3076 105.884C18.7679 105.884 18.3631 105.956 18.0933 106.101C17.8234 106.246 17.6885 106.432 17.6885 106.659C17.6885 106.918 17.8342 107.099 18.1256 107.202C18.4171 107.305 18.8813 107.404 19.5181 107.497C20.2305 107.61 20.8134 107.735 21.2667 107.869C21.7201 107.993 22.1141 108.226 22.4487 108.567C22.7833 108.908 22.9506 109.384 22.9506 109.994C22.9506 110.511 22.7887 110.971 22.4649 111.374C22.1411 111.777 21.6661 112.093 21.0401 112.32C20.4248 112.537 19.6908 112.646 18.8381 112.646ZM35.6647 104.054C36.755 104.054 37.6185 104.364 38.2553 104.984C38.903 105.594 39.2268 106.514 39.2268 107.745V112.522H36.701V108.117C36.701 107.455 36.5553 106.964 36.2638 106.644C35.9832 106.313 35.5784 106.147 35.0495 106.147C34.4558 106.147 33.9863 106.334 33.6408 106.706C33.2955 107.068 33.1227 107.61 33.1227 108.334V112.522H30.5969V108.117C30.5969 106.804 30.0464 106.147 28.9454 106.147C28.3625 106.147 27.8984 106.334 27.553 106.706C27.2076 107.068 27.0348 107.61 27.0348 108.334V112.522H24.509V104.178H26.9215V105.139C27.2453 104.788 27.6393 104.519 28.1035 104.333C28.5784 104.147 29.0965 104.054 29.6578 104.054C30.2731 104.054 30.829 104.173 31.3255 104.41C31.8221 104.638 32.2214 104.974 32.5237 105.418C32.8799 104.984 33.3278 104.648 33.8675 104.41C34.418 104.173 35.0171 104.054 35.6647 104.054ZM45.7306 112.646C44.8131 112.646 43.9874 112.465 43.2533 112.103C42.5302 111.731 41.9635 111.219 41.5533 110.568C41.1431 109.916 40.938 109.177 40.938 108.35C40.938 107.523 41.1431 106.783 41.5533 106.132C41.9635 105.481 42.5302 104.974 43.2533 104.612C43.9874 104.24 44.8131 104.054 45.7306 104.054C46.6481 104.054 47.4685 104.24 48.1917 104.612C48.9149 104.974 49.4816 105.481 49.8917 106.132C50.3019 106.783 50.507 107.523 50.507 108.35C50.507 109.177 50.3019 109.916 49.8917 110.568C49.4816 111.219 48.9149 111.731 48.1917 112.103C47.4685 112.465 46.6481 112.646 45.7306 112.646ZM45.7306 110.661C46.3782 110.661 46.9072 110.454 47.3173 110.04C47.7383 109.616 47.9488 109.053 47.9488 108.35C47.9488 107.647 47.7383 107.088 47.3173 106.675C46.9072 106.251 46.3782 106.039 45.7306 106.039C45.083 106.039 44.5486 106.251 44.1277 106.675C43.7067 107.088 43.4962 107.647 43.4962 108.35C43.4962 109.053 43.7067 109.616 44.1277 110.04C44.5486 110.454 45.083 110.661 45.7306 110.661ZM55.126 112.646C54.403 112.646 53.6956 112.563 53.0049 112.398C52.3143 112.222 51.7638 112.005 51.3534 111.746L52.1954 110.009C52.584 110.247 53.0535 110.444 53.604 110.599C54.1545 110.743 54.6944 110.816 55.2231 110.816C56.2918 110.816 56.8261 110.562 56.8261 110.056C56.8261 109.818 56.6803 109.647 56.3889 109.544C56.0975 109.441 55.6497 109.353 55.045 109.28C54.3326 109.177 53.7442 109.058 53.2802 108.924C52.8162 108.789 52.4114 108.551 52.0659 108.21C51.7314 107.869 51.5639 107.383 51.5639 106.752C51.5639 106.225 51.7203 105.76 52.0335 105.356C52.3573 104.943 52.8213 104.622 53.4259 104.395C54.0412 104.167 54.7642 104.054 55.5955 104.054C56.2108 104.054 56.8205 104.121 57.4251 104.255C58.0404 104.379 58.5479 104.555 58.9471 104.783L58.1052 106.504C57.3386 106.091 56.5022 105.884 55.5955 105.884C55.0557 105.884 54.6509 105.956 54.3812 106.101C54.1115 106.246 53.9764 106.432 53.9764 106.659C53.9764 106.918 54.1221 107.099 54.4136 107.202C54.705 107.305 55.169 107.404 55.806 107.497C56.5184 107.61 57.1013 107.735 57.5547 107.869C58.008 107.993 58.4022 108.226 58.7366 108.567C59.0711 108.908 59.2386 109.384 59.2386 109.994C59.2386 110.511 59.0766 110.971 58.7528 111.374C58.429 111.777 57.9539 112.093 57.328 112.32C56.7127 112.537 55.9786 112.646 55.126 112.646ZM78.497 101.479C79.8358 101.479 80.8771 101.857 81.6219 102.611C82.3667 103.356 82.7391 104.436 82.7391 105.853V112.522H80.1161V105.93C80.1161 105.165 79.9056 104.591 79.4846 104.209C79.0748 103.816 78.5293 103.619 77.8493 103.619C77.1045 103.619 76.511 103.826 76.0683 104.24C75.6261 104.643 75.4044 105.258 75.4044 106.085V112.522H72.7815V105.93C72.7815 105.165 72.5872 104.591 72.1986 104.209C71.81 103.816 71.2813 103.619 70.6119 103.619C69.8782 103.619 69.2897 103.826 68.847 104.24C68.4048 104.643 68.1832 105.258 68.1832 106.085V112.522H65.5602V101.665H68.1022V102.999C68.4478 102.513 68.9067 102.141 69.4785 101.882C70.0507 101.614 70.709 101.479 71.4538 101.479C72.231 101.479 72.911 101.619 73.4939 101.898C74.0768 102.167 74.5251 102.56 74.8378 103.077C75.2263 102.56 75.7338 102.167 76.3597 101.898C76.9967 101.619 77.7092 101.479 78.497 101.479ZM89.5348 110.707C89.9882 110.707 90.3874 110.645 90.7329 110.521C91.0892 110.387 91.4185 110.18 91.7206 109.901L93.0645 111.297C92.2443 112.196 91.0462 112.646 89.47 112.646C88.4879 112.646 87.6187 112.465 86.8633 112.103C86.1078 111.731 85.5249 111.219 85.1146 110.568C84.7043 109.916 84.4993 109.177 84.4993 108.35C84.4993 107.533 84.6992 106.799 85.0984 106.147C85.5088 105.486 86.0643 104.974 86.7661 104.612C87.4785 104.24 88.2775 104.054 89.1624 104.054C89.9937 104.054 90.7491 104.224 91.4292 104.565C92.1092 104.896 92.6491 105.382 93.0483 106.023C93.4586 106.654 93.6636 107.404 93.6636 108.272L87.2195 109.466C87.4031 109.88 87.689 110.19 88.0776 110.397C88.4768 110.604 88.9625 110.707 89.5348 110.707ZM89.1624 105.884C88.5254 105.884 88.0073 106.08 87.608 106.473C87.2088 106.866 86.9983 107.409 86.9766 108.102L91.2187 107.311C91.0998 106.876 90.8569 106.53 90.4901 106.272C90.1232 106.013 89.6805 105.884 89.1624 105.884ZM89.8262 100.874H92.5464L89.6158 103.108H87.6404L89.8262 100.874ZM100.662 112.522L98.7511 109.963L96.7758 112.522H94.0233L97.3749 108.319L94.1366 104.178H96.9701L98.8159 106.613L100.71 104.178H103.398L100.16 108.257L103.528 112.522H100.662ZM104.754 104.178H107.279V112.522H104.754V104.178ZM106.016 103.015C105.552 103.015 105.174 102.885 104.883 102.627C104.592 102.368 104.446 102.048 104.446 101.665C104.446 101.283 104.592 100.962 104.883 100.704C105.174 100.445 105.552 100.316 106.016 100.316C106.48 100.316 106.858 100.44 107.15 100.688C107.441 100.936 107.587 101.246 107.587 101.619C107.587 102.022 107.441 102.358 107.15 102.627C106.858 102.885 106.48 103.015 106.016 103.015ZM113.833 112.646C112.905 112.646 112.068 112.465 111.324 112.103C110.589 111.731 110.012 111.219 109.591 110.568C109.181 109.916 108.976 109.177 108.976 108.35C108.976 107.523 109.181 106.783 109.591 106.132C110.012 105.481 110.589 104.974 111.324 104.612C112.068 104.24 112.905 104.054 113.833 104.054C114.751 104.054 115.549 104.24 116.23 104.612C116.92 104.974 117.422 105.496 117.735 106.178L115.776 107.187C115.323 106.421 114.67 106.039 113.817 106.039C113.159 106.039 112.613 106.246 112.182 106.659C111.75 107.073 111.534 107.636 111.534 108.35C111.534 109.063 111.75 109.627 112.182 110.04C112.613 110.454 113.159 110.661 113.817 110.661C114.681 110.661 115.333 110.278 115.776 109.513L117.735 110.537C117.422 111.198 116.92 111.715 116.23 112.088C115.549 112.46 114.751 112.646 113.833 112.646ZM123.224 112.646C122.306 112.646 121.481 112.465 120.746 112.103C120.023 111.731 119.457 111.219 119.046 110.568C118.636 109.916 118.431 109.177 118.431 108.35C118.431 107.523 118.636 106.783 119.046 106.132C119.457 105.481 120.023 104.974 120.746 104.612C121.481 104.24 122.306 104.054 123.224 104.054C124.141 104.054 124.962 104.24 125.685 104.612C126.408 104.974 126.975 105.481 127.385 106.132C127.795 106.783 128 107.523 128 108.35C128 109.177 127.795 109.916 127.385 110.568C126.975 111.219 126.408 111.731 125.685 112.103C124.962 112.465 124.141 112.646 123.224 112.646ZM123.224 110.661C123.871 110.661 124.4 110.454 124.81 110.04C125.231 109.616 125.442 109.053 125.442 108.35C125.442 107.647 125.231 107.088 124.81 106.675C124.4 106.251 123.871 106.039 123.224 106.039C122.576 106.039 122.042 106.251 121.621 106.675C121.2 107.088 120.989 107.647 120.989 108.35C120.989 109.053 121.2 109.616 121.621 110.04C122.042 110.454 122.576 110.661 123.224 110.661Z" fill="url(#paint0_linear_1261_56)"/>
<path fill-rule="evenodd" clip-rule="evenodd" d="M63.8011 15.292L24.0039 52.9683H36.6953V66.9591C36.6953 67.6743 37.2784 68.2541 37.9978 68.2541C38.7171 68.2541 39.3002 67.6743 39.3002 66.9591V50.3783H30.5172L63.8106 18.8592L97.4576 50.3783H88.1822V63.5471C88.1822 64.2623 88.7653 64.842 89.4846 64.842C90.2039 64.842 90.787 64.2623 90.787 63.5471V52.9683H104.021L63.8011 15.292Z" fill="#48347A"/>
<path fill-rule="evenodd" clip-rule="evenodd" d="M60.9751 63.05L50.9354 86.899L44.4187 73.5531L40.5928 81.2139H27.0734C26.4979 81.2139 26.0314 81.6777 26.0314 82.2499C26.0314 82.8221 26.4979 83.2859 27.0734 83.2859H41.8847L44.3976 78.2541L51.0761 91.9312L61.0878 68.1486L73.6804 94.7192L83.2316 72.9785L89.4173 83.2859H101.328C101.904 83.2859 102.37 82.8221 102.37 82.2499C102.37 81.6777 101.904 81.2139 101.328 81.2139H90.6006L82.9444 68.4562L73.6085 89.7067L60.9751 63.05Z" fill="#48347A"/>
<path d="M73.3299 37.7588H67.7673V43.6274H73.3299V37.7588Z" fill="#2449A6"/>
<path d="M59.7355 37.7588H54.1729V43.6274H59.7355V37.7588Z" fill="#A50E6F"/>
<path d="M59.7355 48.674H54.1729V54.5426H59.7355V48.674Z" fill="#2449A6"/>
<path d="M73.3299 48.674H67.7673V54.5426H73.3299V48.674Z" fill="#A50E6F"/>
<defs>
<linearGradient id="paint0_linear_1261_56" x1="125.971" y1="106.848" x2="3.25974" y2="106.848" gradientUnits="userSpaceOnUse">
<stop stop-color="#48347A"/>
<stop offset="0.536458" stop-color="#2449A6"/>
<stop offset="1" stop-color="#A50E6F"/>
</linearGradient>
</defs>
</svg>
